<svg width="1577" height="1773" xmlns="http://www.w3.org/2000/svg" xmlns:xlink="http://www.w3.org/1999/xlink" overflow="hidden"><defs><clipPath id="clip0"><rect x="178" y="307" width="1577" height="1773"/></clipPath></defs><g clip-path="url(#clip0)" transform="translate(-178 -307)"><path d="M1384.96 664.385C1384.96 813.163 1156.41 933.77 874.478 933.77 592.548 933.77 363.998 813.163 363.998 664.385 363.998 515.608 592.548 395 874.478 395 1156.41 395 1384.96 515.608 1384.96 664.385L1384.96 1708.61C1384.96 1857.39 1156.41 1978 874.478 1978 592.548 1978 363.998 1857.39 363.998 1708.61L364 664.385" stroke="#C00000" stroke-width="13.75" stroke-linecap="butt" stroke-linejoin="miter" stroke-miterlimit="8" stroke-opacity="1" fill="none" fill-rule="evenodd"/><path d="M883.575 646.917 911.075 646.917 911.075 656.083 883.575 656.083ZM920.241 646.917 947.741 646.917 947.741 656.083 920.241 656.083ZM956.908 646.917 984.408 646.917 984.408 656.083 956.908 656.083ZM993.575 646.917 1021.07 646.917 1021.07 656.083 993.575 656.083ZM1030.24 646.917 1057.74 646.917 1057.74 656.083 1030.24 656.083ZM1066.91 646.917 1094.41 646.917 1094.41 656.083 1066.91 656.083ZM1103.57 646.917 1131.07 646.917 1131.07 656.083 1103.57 656.083ZM1140.24 646.917 1167.74 646.917 1167.74 656.083 1140.24 656.083ZM1176.91 646.917 1204.41 646.917 1204.41 656.083 1176.91 656.083ZM1213.57 646.917 1241.07 646.917 1241.07 656.083 1213.57 656.083ZM1250.24 646.917 1277.74 646.917 1277.74 656.083 1250.24 656.083ZM1286.91 646.917 1314.41 646.917 1314.41 656.083 1286.91 656.083ZM1323.57 646.917 1351.07 646.917 1351.07 656.084 1323.57 656.084ZM1360.24 646.917 1375.89 646.917 1375.89 656.084 1360.24 656.084ZM908.766 671.501 874.479 651.5 908.766 631.499C910.952 630.224 913.759 630.962 915.034 633.149 916.309 635.335 915.571 638.142 913.384 639.417L885.884 655.459 885.884 647.541 913.384 663.583C915.571 664.858 916.309 667.664 915.034 669.851 913.759 672.037 910.952 672.776 908.766 671.501ZM1350.7 631.5 1384.99 651.5 1350.7 671.501C1348.52 672.776 1345.71 672.038 1344.43 669.851 1343.16 667.665 1343.9 664.858 1346.08 663.583L1373.58 647.541 1373.58 655.459 1346.08 639.418C1343.9 638.142 1343.16 635.336 1344.43 633.149 1345.71 630.963 1348.52 630.224 1350.7 631.5Z" fill="#0D0D0D" fill-rule="nonzero" fill-opacity="1"/><text fill="#000000" fill-opacity="1" font-family="Cambria Math,Cambria Math_MSFontService,sans-serif" font-style="normal" font-variant="normal" font-weight="400" font-stretch="normal" font-size="110" text-anchor="start" direction="ltr" writing-mode="lr-tb" unicode-bidi="normal" text-decoration="none" transform="translate(1079.57 567)">ЁЭСе<tspan fill="#000000" fill-opacity="1" font-family="Cambria Math,Cambria Math_MSFontService,sans-serif" font-style="normal" font-variant="normal" font-weight="400" font-stretch="normal" font-size="80" text-anchor="start" direction="ltr" writing-mode="lr-tb" unicode-bidi="normal" text-decoration="none" x="54.8167" y="23">1</tspan></text><path d="M1455.08 660.575 1455.08 688.075 1445.92 688.075 1445.92 660.575ZM1455.08 697.241 1455.08 724.741 1445.92 724.741 1445.92 697.241ZM1455.08 733.908 1455.08 761.408 1445.92 761.408 1445.92 733.908ZM1455.08 770.575 1455.08 798.075 1445.92 798.075 1445.92 770.575ZM1455.08 807.241 1455.08 834.741 1445.92 834.741 1445.92 807.241ZM1455.08 843.908 1455.08 871.408 1445.92 871.408 1445.92 843.908ZM1455.08 880.575 1455.08 908.075 1445.92 908.075 1445.92 880.575ZM1455.08 917.241 1455.08 944.741 1445.92 944.741 1445.92 917.241ZM1455.08 953.908 1455.08 981.408 1445.92 981.408 1445.92 953.908ZM1455.08 990.575 1455.08 1018.07 1445.92 1018.07 1445.92 990.575ZM1455.08 1027.24 1455.08 1054.74 1445.92 1054.74 1445.92 1027.24ZM1455.08 1063.91 1455.08 1091.41 1445.92 1091.41 1445.92 1063.91ZM1455.08 1100.57 1455.08 1128.07 1445.92 1128.07 1445.92 1100.57ZM1455.08 1137.24 1455.08 1164.74 1445.92 1164.74 1445.92 1137.24ZM1455.08 1173.91 1455.08 1201.41 1445.92 1201.41 1445.92 1173.91ZM1455.08 1210.57 1455.08 1238.07 1445.92 1238.07 1445.92 1210.57ZM1455.08 1247.24 1455.08 1274.74 1445.92 1274.74 1445.92 1247.24ZM1455.08 1283.91 1455.08 1311.41 1445.92 1311.41 1445.92 1283.91ZM1455.08 1320.57 1455.08 1348.07 1445.92 1348.07 1445.92 1320.57ZM1455.08 1357.24 1455.08 1384.74 1445.92 1384.74 1445.92 1357.24ZM1455.08 1393.91 1455.08 1421.41 1445.92 1421.41 1445.92 1393.91ZM1455.08 1430.57 1455.08 1458.07 1445.92 1458.07 1445.92 1430.57ZM1455.08 1467.24 1455.08 1494.74 1445.92 1494.74 1445.92 1467.24ZM1455.08 1503.91 1455.08 1531.41 1445.92 1531.41 1445.92 1503.91ZM1455.08 1540.57 1455.08 1568.07 1445.92 1568.07 1445.92 1540.57ZM1455.08 1577.24 1455.08 1604.74 1445.92 1604.74 1445.92 1577.24ZM1455.08 1613.91 1455.08 1641.41 1445.92 1641.41 1445.92 1613.91ZM1455.08 1650.57 1455.08 1678.07 1445.92 1678.07 1445.92 1650.57ZM1455.08 1687.24 1455.08 1714.74 1445.92 1714.74 1445.92 1687.24ZM1455.08 1723.91 1455.08 1729.38 1445.92 1729.38 1445.92 1723.91ZM1430.5 685.766 1450.5 651.479 1470.5 685.765C1471.78 687.952 1471.04 690.758 1468.85 692.034 1466.66 693.309 1463.86 692.571 1462.58 690.384L1446.54 662.884 1454.46 662.884 1438.42 690.384C1437.14 692.571 1434.34 693.309 1432.15 692.034 1429.96 690.758 1429.22 687.952 1430.5 685.766ZM1470.5 1704.19 1450.5 1738.47 1430.5 1704.19C1429.22 1702 1429.96 1699.19 1432.15 1697.92 1434.34 1696.64 1437.14 1697.38 1438.42 1699.57L1454.46 1727.07 1446.54 1727.07 1462.58 1699.57C1463.86 1697.38 1466.67 1696.64 1468.85 1697.92 1471.04 1699.19 1471.78 1702 1470.5 1704.19Z" fill="#0D0D0D" fill-rule="nonzero" fill-opacity="1"/><text fill="#000000" fill-opacity="1" font-family="Cambria Math,Cambria Math_MSFontService,sans-serif" font-style="normal" font-variant="normal" font-weight="400" font-stretch="normal" font-size="110" text-anchor="start" direction="ltr" writing-mode="lr-tb" unicode-bidi="normal" text-decoration="none" transform="translate(1528.04 1189)">ЁЭСе<tspan fill="#000000" fill-opacity="1" font-family="Cambria Math,Cambria Math_MSFontService,sans-serif" font-style="normal" font-variant="normal" font-weight="400" font-stretch="normal" font-size="80" text-anchor="start" direction="ltr" writing-mode="lr-tb" unicode-bidi="normal" text-decoration="none" x="57.3605" y="23">2</tspan></text></g></svg>