<?xml version="1.0" standalone="no"?>
<!DOCTYPE svg PUBLIC "-//W3C//DTD SVG 20010904//EN"
 "http://www.w3.org/TR/2001/REC-SVG-20010904/DTD/svg10.dtd">
<svg version="1.0" xmlns="http://www.w3.org/2000/svg"
 width="152.000000pt" height="152.000000pt" viewBox="0 0 152.000000 152.000000"
 preserveAspectRatio="xMidYMid meet">
<metadata>
Created by potrace 1.11, written by Peter Selinger 2001-2013
</metadata>
<g transform="translate(0.000000,152.000000) scale(0.100000,-0.100000)"
fill="#000000" stroke="none">
<path d="M0 760 l0 -760 760 0 760 0 0 760 0 760 -760 0 -760 0 0 -760z m930
579 c152 -55 169 -59 195 -49 14 5 25 16 25 25 0 8 9 15 20 15 20 0 20 -5 18
-192 -3 -170 -5 -193 -20 -196 -12 -2 -18 7 -23 37 -10 60 -76 189 -125 244
-113 127 -259 149 -355 52 -82 -82 -117 -238 -118 -520 0 -283 31 -432 106
-509 155 -162 443 -2 498 275 7 38 17 59 25 59 11 0 14 -37 14 -200 0 -211 -6
-234 -42 -170 -22 39 -51 39 -125 0 -258 -135 -550 -37 -682 230 -55 113 -74
207 -68 335 16 327 248 588 527 594 27 0 79 -11 130 -30z"/>
</g>
</svg>
